<svg width="70" height="61" viewBox="0 0 70 61" fill="none" xmlns="http://www.w3.org/2000/svg">
<path d="M0 23.2835C0.659735 22.6299 1.55018 22.2367 2.36371 21.7991C14.4238 15.3248 26.7051 9.16725 38.8785 2.89962C40.6472 1.98968 42.1785 0.984441 44.0957 0.317415C44.205 0.279836 45.2559 -0.126822 45.2546 0.0369151L44.9632 0.871704C42.8113 3.51431 40.1332 5.77173 37.6912 8.15665C34.1781 11.5857 30.7067 15.0403 27.2056 18.4828C25.847 19.8182 23.1663 21.5468 23.4577 23.6311C26.2626 29.0599 29.5963 34.2404 32.6198 39.5632C32.7803 39.8464 33.6222 41.2355 33.6074 41.4033C29.8473 47.9487 26.2073 54.5774 22.203 60.9752C22.0627 61.0302 21.9574 60.9779 21.8482 60.892C21.6552 60.7403 20.9739 59.8438 20.7945 59.5888C13.9516 47.9957 7.35557 36.2523 0.531566 24.6457C0.384508 24.3961 0.230705 24.0686 0 23.8968V23.2835Z" fill="#17D863"/>
<path d="M47.1704 1.11798L69.7296 23.0265C67.722 26.6676 65.6524 30.2752 63.5774 33.8774C58.5222 42.6548 53.3765 51.3973 48.2322 60.1182L47.2621 60.9893L25.1104 23.1124L25.1887 22.9245C26.7699 21.3932 28.3039 19.8162 29.8743 18.2741C34.6003 13.6358 39.5909 9.15719 44.2265 4.43432C45.2586 3.38211 46.1666 2.19838 47.169 1.11798H47.1704Z" fill="url(#paint0_linear_0_1)"/>
<defs>
<linearGradient id="paint0_linear_0_1" x1="69.0267" y1="31.0613" x2="25.244" y2="31.0634" gradientUnits="userSpaceOnUse">
<stop stop-color="#1E2143"/>
<stop offset="0.53" stop-color="#1E2143"/>
<stop offset="1" stop-color="#FBFBFB"/>
</linearGradient>
</defs>
</svg>
