<svg version="1.2" xmlns="http://www.w3.org/2000/svg" viewBox="0 0 161 160" width="161" height="160">
	<style>
		.s0 { fill: #1976d2 } 
		.s1 { fill: #63dbfb } 
	</style>
	<g id="Carpeta 1">
		<path class="s0" d="m74 160c-21.15 0-41.81 0.01-62.46-0.01-7.7-0.01-10.53-2.83-10.53-10.54q-0.03-69.45 0-138.91c0-7.7 2.83-10.53 10.54-10.53q69.45-0.03 138.91 0c7.7 0 10.53 2.83 10.53 10.54q0.03 69.45 0 138.91c0 7.7-2.83 10.53-10.54 10.53-25.32 0.02-50.63 0.01-76.45 0.01zm-58-49.5q-0.01 13.24 0 26.48c0.01 8.06 2.38 10.58 10.31 10.59q55.96 0.05 111.92 0c7.73-0.01 10.32-2.53 10.33-10.13q0.08-43.71 0-87.43c-0.02-7.62-2.61-10.01-10.38-10.01q-55.96-0.01-111.92 0c-7.89 0-10.26 2.45-10.26 10.54-0.01 19.66 0 39.31 0 59.96z"/>
		<path class="s1" d="m121.05 125.37c-8.63 3.7-16.21 1.63-20.39-5.28-3.63-6-2.15-14.65 3.25-19.03 6.56-5.33 16.38-4.26 21.34 2.31 5.44 7.21 3.88 15.97-4.2 22z"/>
	</g>
</svg>