<svg version="1.2" xmlns="http://www.w3.org/2000/svg" viewBox="0 0 2426 1214" width="2426" height="1214">
	<style>
		.s0 { fill: #fff500 } 
		.s1 { fill: #333333 } 
	</style>
	<path id="Path 1" class="s0" d="m2424.22 1212.12h-2424.44v-1212.23h2424.44z"/>
	<path id="Path 2" fill-rule="evenodd" class="s1" d="m658.08 406.41h88.32v248.1c0 47.35-14.28 84.39-42.37 111.02-28.29 26.6-69.42 39.92-123.77 39.92-54.27 0-95.41-13.24-123.4-39.65-28.05-26.55-42.05-63.57-42.05-111.29v-248.1h88.28v250.82q0 37.46 19.26 56.95c13.14 12.87 32.46 19.27 57.91 19.27 25.62 0 44.88-6.4 58.1-19.27 13.22-13 19.72-31.98 19.72-56.95zm503.57 200.52c0 31.79-4.42 59.93-13.48 84.34-9.05 24.52-21.77 45.28-38.18 62.16-16.41 17.04-35.99 29.95-59.26 38.67-23.08 8.8-48.6 13.12-76.81 13.12h-101.27c-15.9 0-28.31-4.07-37.07-12.37-8.63-8.14-13.09-19.62-13.09-34.23v-305.07c0-14.53 4.46-26.11 13.09-34.61 8.76-8.27 21.17-12.52 37.07-12.52h103.03c28.33 0 54.14 4.54 76.96 13.65 22.91 9.09 42.38 22.27 58.64 39.39 16.25 17.15 28.72 38.29 37.4 63.05 8.75 24.69 12.97 52.93 12.97 84.42zm-85.69 0c0-41.51-9.36-74.05-28.05-97.82-18.76-23.77-44.96-35.73-78.69-35.73h-59.78v264.34h62.89c33.16 0 58.54-11.15 76.63-33.58 17.94-22.22 27-54.68 27-97.21zm212.34 198.27c-16.23 0-28.63-4.06-37.51-12.34-8.61-8.17-13.05-19.62-13.05-34.23v-305.08c0-14.54 4.44-26.12 13.05-34.61 8.88-8.28 21.28-12.53 37.51-12.53h230.06v65.83h-193.15v98.14h168.92v63.3h-168.92v106.23h193.38v65.29zm722.47 0.03h-77.64v-288.54l-85.51 259.81c-5.81 20.99-21.09 31.35-46.29 31.35-24.8 0-40.83-10.36-47.88-31.35l-83.93-260.31v289.04h-75.03v-344.53c0-18.31 6.01-32.19 17.86-41.19 11.85-9.03 27.48-13.55 47.07-13.55 10.99 0 20.37 1.37 28.51 3.98 7.78 2.58 14.64 6.23 20.42 10.64 5.58 4.4 10.29 9.84 14.02 16.28 3.63 6.39 6.83 13.32 9.22 20.69l71.29 227.42 74.54-227.42c4.51-14.84 11.86-27.19 21.94-36.97 10.11-9.8 26.19-14.62 48.04-14.62 19.53 0 34.93 4.52 46.32 13.55 11.39 9 17.05 22.88 17.05 41.19z"/>
</svg>