<svg version="1.2" xmlns="http://www.w3.org/2000/svg" viewBox="0 0 210 208" width="210" height="208">
	<title>uAAH3XzL_400x400-_2_</title>
	<style>
		.s0 { fill: #00a24e } 
		.s1 { fill: #ec1a39 } 
	</style>
	<g>
		<path class="s0" d="m88.5 1.5c-23 4-41.2 13.3-57.4 29.5-15.8 15.7-25.5 34.7-29.6 57.8-6.9 39.4 11.2 81.5 44.9 104.4 6.5 4.5 20.2 11.2 27 13.2l4.3 1.3-2.2-5.6c-3-7.4-22.4-55.3-26.8-66.1-1.9-4.7-6.1-14.8-9.2-22.5-7.3-17.6-12.5-30.7-12.5-31.2 0-0.2 10.6-0.3 23.5-0.3 18.1 0 24.4 0.3 27 1.4 3.7 1.6 5.6 4.6 10.5 17.3 1.7 4.3 3.5 8.7 4 9.8 0.5 1.1 3.5 8.3 6.6 16 5.3 13.4 7.4 17.4 7.4 14.7 0-0.7 2-6.1 4.4-12 2.5-5.9 7.2-17.5 10.6-25.7 3.9-9.3 7.3-16.1 9.1-18l2.9-3 25-0.3c13.8-0.2 25-0.1 25 0.2 0 0.7-6.2 16.5-11.8 30.1-7.2 17.4-15.5 37.7-22.9 56-3.6 8.8-8.5 20.9-11 26.9-2.4 5.9-4.2 11-3.9 11.3 0.8 0.9 10.3-2.5 18-6.4 27.4-13.7 47.3-38.3 55.4-68.3 2.2-8.2 2.5-11.7 2.6-25.5 0.1-17.3-1.1-24.5-6.1-38-11.3-30.3-37-54.4-68.2-64.1-13-4-33.1-5.3-46.6-2.9z"/>
		<path class="s1" d="m85.7 20.6c-19.2 11.5-21.1 37.1-4.1 53 21.6 20.5 57.4 5.2 57.4-24.7 0-27.3-29.6-42.9-53.3-28.3z"/>
	</g>
</svg>