<svg xmlns="http://www.w3.org/2000/svg" viewBox="30 30 120 110" fill="none">
  <path fill="#6363F1" d="M35 81.61c0 2.044.538 4.088 1.578 5.845l18.86 32.664c1.935 3.334 4.875 6.059 8.532 7.278 7.207 2.402 14.665-.681 18.215-6.848l4.553-7.888-17.963-31.05 23.52-40.767c1.363-2.366 3.192-4.302 5.343-5.844H68.38c-5.127 0-9.86 2.725-12.405 7.17L36.578 75.768C35.538 77.523 35 79.567 35 81.61Z"/>
  <path fill="#6363F1" d="M142.563 81.61c0-2.043-.537-4.087-1.577-5.844l-19.111-33.093c-3.549-6.131-11.007-9.215-18.214-6.849-3.657 1.22-6.597 3.945-8.533 7.279l-4.303 7.422 17.963 31.086-23.52 40.766a18.946 18.946 0 0 1-5.342 5.844h29.257c5.127 0 9.86-2.724 12.406-7.17l19.397-33.596c1.04-1.757 1.577-3.8 1.577-5.844Z"/>
</svg>
